<svg width="20" height="21" viewBox="0 0 20 21" fill="none" xmlns="http://www.w3.org/2000/svg">
<g clip-path="url(#clip0_317_2)">
<path d="M10 19.25C7.67936 19.25 5.45376 18.3281 3.81282 16.6872C2.17187 15.0462 1.25 12.8206 1.25 10.5C1.25 8.17936 2.17187 5.95376 3.81282 4.31282C5.45376 2.67187 7.67936 1.75 10 1.75C12.3206 1.75 14.5462 2.67187 16.1872 4.31282C17.8281 5.95376 18.75 8.17936 18.75 10.5C18.75 12.8206 17.8281 15.0462 16.1872 16.6872C14.5462 18.3281 12.3206 19.25 10 19.25ZM10 20.5C12.6522 20.5 15.1957 19.4464 17.0711 17.5711C18.9464 15.6957 20 13.1522 20 10.5C20 7.84784 18.9464 5.3043 17.0711 3.42893C15.1957 1.55357 12.6522 0.5 10 0.5C7.34784 0.5 4.8043 1.55357 2.92893 3.42893C1.05357 5.3043 0 7.84784 0 10.5C0 13.1522 1.05357 15.6957 2.92893 17.5711C4.8043 19.4464 7.34784 20.5 10 20.5V20.5Z" fill="#ACACAC"/>
<path d="M6 15L14 7M6 7L14 15" stroke="#ACACAC" stroke-width="1.5" stroke-linecap="round"/>
</g>
<defs>
<clipPath id="clip0_317_2">
<rect width="20" height="20" fill="white" transform="translate(0 0.5)"/>
</clipPath>
</defs>
</svg>
